<svg xmlns="http://www.w3.org/2000/svg" version="1.1" xmlns:xlink="http://www.w3.org/1999/xlink" xmlns:svgjs="http://svgjs.com/svgjs" width="1000" height="1000"><rect width="1000" height="1000" rx="200" ry="200" fill="#000000"></rect><g transform="matrix(0.2808988764044944,0,0,0.2808988764044944,199.99784936797755,199.16221910112358)"><svg xmlns="http://www.w3.org/2000/svg" version="1.1" xmlns:xlink="http://www.w3.org/1999/xlink" xmlns:svgjs="http://svgjs.com/svgjs" width="2136" height="2136"><svg width="2136" height="2136" viewBox="0 0 2136 2136" fill="none" xmlns="http://www.w3.org/2000/svg">
<g filter="url(#filter0_i_127_2)">
<path d="M803.93 1153.34H1023.67V1274.74H803.93V2133.67H671.484V179.071C671.484 81.9474 749.747 0 846.071 0C945.405 0 1023.67 81.9474 1023.67 179.071V1065.32H891.223V166.93C891.223 142.649 870.152 124.439 846.071 124.439C821.99 124.439 803.93 142.649 803.93 166.93V1153.34Z" fill="white"></path>
<path d="M1464.51 1153.34H1332.07V1964.67C1332.07 1988.81 1311 2009.93 1286.92 2009.93C1262.84 2009.93 1244.78 1988.81 1244.78 1964.67V165.986C1244.78 141.842 1262.84 123.735 1286.92 123.735C1311 123.735 1332.07 141.842 1332.07 165.986V1065.32H1464.51V178.057C1464.51 78.4659 1386.25 0 1286.92 0C1190.6 0 1112.34 78.4659 1112.34 178.057V1955.61C1112.34 2052.19 1190.6 2133.67 1286.92 2133.67C1386.25 2133.67 1464.51 2052.19 1464.51 1955.61V1153.34Z" fill="white"></path>
</g>
<defs>
<filter id="filter0_i_127_2" x="671.484" y="0" width="814.023" height="2137.67" filterUnits="userSpaceOnUse" color-interpolation-filters="sRGB">
<feFlood flood-opacity="0" result="BackgroundImageFix"></feFlood>
<feBlend mode="normal" in="SourceGraphic" in2="BackgroundImageFix" result="shape"></feBlend>
<feColorMatrix in="SourceAlpha" type="matrix" values="0 0 0 0 0 0 0 0 0 0 0 0 0 0 0 0 0 0 127 0" result="hardAlpha"></feColorMatrix>
<feOffset dx="21" dy="4"></feOffset>
<feGaussianBlur stdDeviation="21.5"></feGaussianBlur>
<feComposite in2="hardAlpha" operator="arithmetic" k2="-1" k3="1"></feComposite>
<feColorMatrix type="matrix" values="0 0 0 0 0 0 0 0 0 0 0 0 0 0 0 0 0 0 0.25 0"></feColorMatrix>
<feBlend mode="normal" in2="shape" result="effect1_innerShadow_127_2"></feBlend>
</filter>
</defs>
</svg></svg></g></svg>