<?xml version="1.0" standalone="no"?>
<!DOCTYPE svg PUBLIC "-//W3C//DTD SVG 20010904//EN"
 "http://www.w3.org/TR/2001/REC-SVG-20010904/DTD/svg10.dtd">
<svg version="1.0" xmlns="http://www.w3.org/2000/svg"
 width="958.000000pt" height="958.000000pt" viewBox="0 0 958.000000 958.000000"
 preserveAspectRatio="xMidYMid meet">
<metadata>
Created by potrace 1.14, written by Peter Selinger 2001-2017
</metadata>
<g transform="translate(0.000000,958.000000) scale(0.100000,-0.100000)"
fill="#000000" stroke="none">
<path d="M3690 9435 c-171 -35 -293 -104 -420 -236 -72 -75 -131 -174 -172
-290 l-33 -94 -3 -4341 -2 -4340 287 0 288 1 1 1868 c0 1027 4 1870 7 1874 4
3 220 7 480 7 l472 1 0 263 1 262 -46 1 c-25 0 -240 1 -479 2 l-434 2 0 2171
0 2171 21 44 c64 130 247 136 333 10 l24 -36 5 -1990 5 -1990 275 0 c151 0
280 1 286 3 11 3 12 3954 0 4007 -40 178 -120 322 -242 434 -109 99 -235 165
-368 193 -73 14 -222 16 -286 3z"/>
<path d="M5645 9439 c-341 -45 -601 -309 -654 -664 -4 -27 -6 -1836 -5 -4020
l1 -3970 22 -74 c69 -232 216 -408 424 -507 101 -48 222 -72 339 -68 203 6
384 87 530 237 115 117 196 289 214 452 6 64 7 3575 0 3582 -4 4 -410 7 -547
4 l-26 -1 0 -1782 c0 -981 -3 -1794 -8 -1808 -37 -124 -188 -184 -287 -114
-23 16 -51 47 -62 69 l-21 40 -2 3960 c-2 2851 0 3972 8 4002 12 45 58 99 99
115 99 40 230 -16 261 -111 9 -27 12 -528 13 -2011 l1 -1975 278 0 c154 0 283
3 289 6 14 9 13 3902 -1 3989 -42 261 -201 475 -434 584 -121 57 -298 84 -432
65z"/>
</g>
</svg>
