<?xml version="1.0" standalone="no"?>
<!DOCTYPE svg PUBLIC "-//W3C//DTD SVG 20010904//EN"
 "http://www.w3.org/TR/2001/REC-SVG-20010904/DTD/svg10.dtd">
<svg version="1.0" xmlns="http://www.w3.org/2000/svg"
 width="700.000000pt" height="700.000000pt" viewBox="0 0 700.000000 700.000000"
 preserveAspectRatio="xMidYMid meet">
<metadata>
Created by potrace 1.14, written by Peter Selinger 2001-2017
</metadata>
<g transform="translate(0.000000,700.000000) scale(0.100000,-0.100000)"
fill="#000000" stroke="none">
<path d="M2646 6985 c-103 -26 -185 -73 -266 -155 -86 -85 -131 -162 -160
-272 -18 -71 -19 -158 -19 -3310 l-1 -3238 42 -1 c63 0 317 -1 358 0 l35 1 0
1405 c0 1253 1 1405 15 1406 8 0 169 1 357 1 249 0 343 3 345 11 4 10 2 356
-1 380 -1 4 -162 7 -359 7 l-358 0 1 1638 c0 1200 4 1642 12 1657 6 11 23 31
38 45 23 21 36 25 91 25 60 0 66 -2 101 -38 l38 -37 3 -1500 2 -1500 218 0
217 0 -1 1483 c0 1173 -3 1494 -13 1542 -46 212 -209 387 -416 445 -67 19
-213 21 -279 5z"/>
<path d="M4086 6985 c-226 -57 -407 -259 -433 -484 -7 -57 -9 -5900 -3 -5981
5 -59 49 -183 85 -240 41 -64 141 -161 205 -197 199 -113 466 -91 640 54 102
84 186 224 209 346 7 38 10 498 10 1397 l1 1340 -218 -2 -217 -3 0 -1345 c0
-1120 -3 -1349 -14 -1370 -20 -36 -71 -80 -95 -82 -76 -6 -119 11 -153 60 -17
26 -18 145 -21 3017 -2 2832 -1 2992 15 3025 47 92 181 96 247 7 l21 -28 0
-1495 0 -1494 218 0 217 0 -3 1513 c-2 1512 -2 1512 -23 1572 -65 183 -190
311 -364 371 -90 32 -238 40 -324 19z"/>
</g>
</svg>
